<?xml version="1.0" standalone="no"?>
<!DOCTYPE svg PUBLIC "-//W3C//DTD SVG 20010904//EN"
 "http://www.w3.org/TR/2001/REC-SVG-20010904/DTD/svg10.dtd">
<svg version="1.0" xmlns="http://www.w3.org/2000/svg"
 width="330px" height="330px" viewBox="0 0 250 250"
 preserveAspectRatio="xMidYMid meet">

    <circle cx="125" cy="125" r="125" fill="white"/>

<g transform="translate(-126,380) scale(0.05,-0.05)"
fill="#000000" stroke="none">
<path d="M6109 7571 c-27 -28 -28 -33 -27 -112 1 -91 -12 -136 -59 -197 -28
-38 -137 -112 -162 -112 -9 1 -25 15 -36 33 -65 104 -315 193 -520 185 -52 -1
-95 -2 -95 0 0 1 18 18 39 37 49 44 67 88 45 110 -32 31 -241 12 -394 -37
-101 -32 -254 -116 -319 -175 -46 -41 -75 -58 -128 -74 -159 -49 -323 -159
-379 -255 -14 -24 -31 -44 -37 -44 -29 1 -99 42 -136 80 -32 33 -47 60 -66
125 -31 101 -58 130 -111 122 -64 -11 -124 -85 -168 -207 -62 -172 -40 -375
57 -518 16 -24 27 -45 25 -48 -2 -2 -20 1 -39 7 -19 5 -91 13 -160 16 -203 10
-362 -24 -548 -115 -195 -94 -351 -241 -351 -328 0 -129 223 -370 460 -497
142 -76 230 -98 406 -104 l152 -5 -68 -97 c-211 -302 -309 -474 -345 -606 -23
-85 -30 -246 -16 -346 69 -475 557 -1044 1127 -1310 168 -79 427 -159 515
-159 43 0 84 29 93 65 16 64 144 344 214 470 83 149 168 281 197 305 16 13 19
13 29 -4 56 -95 146 -170 248 -207 51 -19 60 -27 80 -68 32 -68 140 -171 218
-209 106 -52 178 -66 330 -66 165 0 272 24 406 89 149 72 253 199 293 357 17
70 20 74 63 98 133 74 214 171 269 322 77 209 76 437 -1 636 -54 139 -143 236
-273 298 -81 38 -325 278 -396 389 l-51 80 0 196 c0 108 -3 209 -6 225 l-6 29
154 0 c142 0 159 3 233 28 270 95 491 290 612 538 100 205 82 274 -92 360
-264 129 -594 142 -878 35 -37 -14 -69 -26 -71 -26 -2 0 5 30 15 67 40 144 15
331 -62 458 -41 70 -132 163 -176 182 -48 20 -71 16 -104 -16z m162 -204 c59
-92 82 -178 77 -290 -7 -152 -71 -261 -173 -293 -29 -9 -60 -14 -68 -11 -18 7
-197 243 -197 260 0 7 28 26 62 41 74 34 156 112 191 182 24 47 28 63 42 147
7 46 16 42 66 -36z m-2465 -427 c80 -89 197 -140 323 -140 l53 0 -6 -37 c-21
-120 -80 -225 -154 -277 -165 -116 -403 133 -378 396 5 58 40 173 62 210 4 6
19 -16 34 -49 15 -33 45 -80 66 -103z m1989 48 c22 -38 211 -288 350 -463 53
-66 98 -130 101 -143 4 -13 -2 -43 -14 -70 -29 -68 -42 -151 -42 -272 0 -179
37 -327 126 -501 71 -139 154 -250 281 -377 57 -57 103 -105 103 -106 0 -2
-30 -6 -67 -10 -38 -4 -147 -22 -243 -41 -96 -19 -251 -48 -345 -65 -93 -17
-210 -44 -259 -61 -216 -72 -372 -196 -458 -364 -68 -132 -89 -214 -95 -374
l-6 -134 -82 7 c-202 17 -435 97 -595 206 -123 84 -221 191 -240 261 -25 93
35 222 123 268 l48 24 99 -18 c230 -42 439 10 584 145 44 42 72 78 92 122 26
57 29 72 28 163 -2 107 -27 214 -79 331 -56 128 -181 294 -282 377 -156 127
-253 166 -439 176 -118 7 -125 8 -161 37 -75 60 -121 153 -143 289 -10 59 -9
60 29 120 46 71 67 130 82 231 13 83 17 86 99 86 59 -1 92 -17 144 -70 41 -43
41 -36 17 -146 -9 -42 -8 -55 6 -85 36 -72 107 -58 226 43 37 31 71 56 76 56
5 0 17 -24 25 -54 28 -97 87 -146 174 -146 43 0 56 -6 108 -46 123 -97 206
-116 285 -66 84 54 138 163 148 302 l6 85 62 -3 c52 -3 65 0 82 17 32 32 28
93 -14 180 -19 40 -35 76 -35 80 0 6 56 39 70 40 3 1 14 -14 25 -31z m1511
-365 c21 -8 18 -18 -32 -96 -126 -194 -336 -349 -532 -393 -81 -18 -233 -15
-270 5 -11 6 -24 29 -31 54 -6 25 -13 51 -16 59 -4 11 10 23 51 43 41 20 91
63 183 155 138 139 172 159 303 179 61 10 315 5 344 -6z m-3936 -548 c25 -10
92 -49 150 -86 184 -119 276 -147 400 -120 29 6 55 9 58 6 15 -14 -117 -128
-190 -165 -235 -118 -527 -84 -787 91 -98 65 -220 184 -206 198 12 11 207 66
303 86 84 18 213 13 272 -10z m2991 -215 c23 -13 25 -47 2 -72 -22 -25 -39
-23 -59 7 -15 23 -15 27 0 50 18 28 28 30 57 15z m-1727 -303 c12 -33 -3 -70
-38 -92 -22 -14 -29 -15 -53 -3 -91 43 -41 170 52 133 17 -6 34 -23 39 -38z
m2266 -654 c84 -40 135 -92 176 -178 52 -108 68 -184 67 -315 0 -208 -53 -350
-172 -462 -80 -77 -142 -104 -265 -119 -148 -17 -219 -31 -486 -91 -217 -50
-286 -62 -382 -66 -251 -10 -395 66 -461 245 -17 48 -21 81 -21 193 -1 157 13
222 74 346 74 151 233 271 436 329 49 13 197 46 329 71 132 26 281 55 330 65
61 12 126 17 200 16 100 -2 116 -5 175 -34z m-156 -1235 c-59 -193 -246 -302
-539 -315 -190 -8 -303 27 -398 125 l-48 49 123 6 c174 9 609 88 778 141 25 8
55 14 68 15 20 1 22 -2 16 -21z"/>
<path d="M6899 4642 c-57 -37 -131 -120 -160 -179 -12 -26 -25 -70 -27 -98 -4
-44 -1 -55 23 -83 41 -49 82 -45 146 15 98 92 160 279 115 348 -21 32 -42 32
-97 -3z"/>
<path d="M5720 4438 c-125 -67 100 -321 287 -323 131 -1 154 136 39 230 -97
79 -263 126 -326 93z"/>
</g>
</svg>
